<mxfile host="app.diagrams.net" agent="Mozilla/5.0 (Windows NT 10.0; Win64; x64; rv:137.0) Gecko/20100101 Firefox/137.0" version="26.2.13">
  <diagram id="prtHgNgQTEPvFCAcTncT" name="Page-1">
    <mxGraphModel dx="1645" dy="631" grid="1" gridSize="10" guides="1" tooltips="1" connect="1" arrows="1" fold="1" page="1" pageScale="1" pageWidth="827" pageHeight="1169" math="0" shadow="0">
      <root>
        <mxCell id="0" />
        <mxCell id="1" parent="0" />
        <mxCell id="_WzrzDiwDLtrG3pzDvMp-11" style="edgeStyle=orthogonalEdgeStyle;rounded=0;orthogonalLoop=1;jettySize=auto;html=1;entryX=0;entryY=0.5;entryDx=0;entryDy=0;" edge="1" parent="1" source="dNxyNK7c78bLwvsdeMH5-11" target="_WzrzDiwDLtrG3pzDvMp-7">
          <mxGeometry relative="1" as="geometry" />
        </mxCell>
        <mxCell id="_WzrzDiwDLtrG3pzDvMp-14" value="Puerto: 4200" style="edgeLabel;html=1;align=center;verticalAlign=middle;resizable=0;points=[];" vertex="1" connectable="0" parent="_WzrzDiwDLtrG3pzDvMp-11">
          <mxGeometry x="-0.2449" y="-2" relative="1" as="geometry">
            <mxPoint as="offset" />
          </mxGeometry>
        </mxCell>
        <mxCell id="dNxyNK7c78bLwvsdeMH5-11" value="Cliente" style="swimlane;html=1;startSize=20;horizontal=1;containerType=tree;glass=0;" parent="1" vertex="1">
          <mxGeometry x="-480" y="120" width="330" height="240" as="geometry" />
        </mxCell>
        <mxCell id="_WzrzDiwDLtrG3pzDvMp-4" value="Navegador" style="swimlane;whiteSpace=wrap;html=1;" vertex="1" parent="dNxyNK7c78bLwvsdeMH5-11">
          <mxGeometry x="120" y="65" width="170" height="160" as="geometry" />
        </mxCell>
        <mxCell id="_WzrzDiwDLtrG3pzDvMp-5" value="Google Chrome v: 1.x.x&lt;br&gt;&lt;br&gt;Opera v: 1.x.x&lt;br&gt; &lt;br&gt;Edge v:1.x.x" style="text;html=1;align=center;verticalAlign=middle;resizable=0;points=[];autosize=1;strokeColor=none;fillColor=none;" vertex="1" parent="_WzrzDiwDLtrG3pzDvMp-4">
          <mxGeometry x="10" y="20" width="150" height="90" as="geometry" />
        </mxCell>
        <mxCell id="_WzrzDiwDLtrG3pzDvMp-17" style="edgeStyle=orthogonalEdgeStyle;rounded=0;orthogonalLoop=1;jettySize=auto;html=1;entryX=0;entryY=0.5;entryDx=0;entryDy=0;" edge="1" parent="1" source="_WzrzDiwDLtrG3pzDvMp-7" target="_WzrzDiwDLtrG3pzDvMp-16">
          <mxGeometry relative="1" as="geometry" />
        </mxCell>
        <mxCell id="_WzrzDiwDLtrG3pzDvMp-18" value="Puerto: 8080" style="edgeLabel;html=1;align=center;verticalAlign=middle;resizable=0;points=[];" vertex="1" connectable="0" parent="_WzrzDiwDLtrG3pzDvMp-17">
          <mxGeometry x="0.0692" y="1" relative="1" as="geometry">
            <mxPoint as="offset" />
          </mxGeometry>
        </mxCell>
        <mxCell id="_WzrzDiwDLtrG3pzDvMp-7" value="Servidor Frontend" style="swimlane;whiteSpace=wrap;html=1;" vertex="1" parent="1">
          <mxGeometry x="-40" y="110" width="330" height="290" as="geometry" />
        </mxCell>
        <mxCell id="_WzrzDiwDLtrG3pzDvMp-8" value="Aplicacion Angular" style="swimlane;whiteSpace=wrap;html=1;" vertex="1" parent="_WzrzDiwDLtrG3pzDvMp-7">
          <mxGeometry x="80" y="90" width="185" height="170" as="geometry" />
        </mxCell>
        <mxCell id="_WzrzDiwDLtrG3pzDvMp-10" value="Framework: Angular 19" style="rounded=0;whiteSpace=wrap;html=1;" vertex="1" parent="_WzrzDiwDLtrG3pzDvMp-8">
          <mxGeometry x="32.5" y="27.5" width="135" height="25" as="geometry" />
        </mxCell>
        <mxCell id="_WzrzDiwDLtrG3pzDvMp-13" value="Html,&lt;br&gt;Css,&lt;br&gt;TypesCript" style="text;html=1;align=center;verticalAlign=middle;resizable=0;points=[];autosize=1;strokeColor=none;fillColor=none;" vertex="1" parent="_WzrzDiwDLtrG3pzDvMp-8">
          <mxGeometry x="60" y="83" width="80" height="60" as="geometry" />
        </mxCell>
        <mxCell id="_WzrzDiwDLtrG3pzDvMp-9" value="Desplegado en Azure App Service" style="whiteSpace=wrap;html=1;" vertex="1" parent="_WzrzDiwDLtrG3pzDvMp-7">
          <mxGeometry x="80" y="30" width="200" height="40" as="geometry" />
        </mxCell>
        <mxCell id="_WzrzDiwDLtrG3pzDvMp-47" style="edgeStyle=orthogonalEdgeStyle;rounded=0;orthogonalLoop=1;jettySize=auto;html=1;entryX=0.5;entryY=0;entryDx=0;entryDy=0;" edge="1" parent="1" source="_WzrzDiwDLtrG3pzDvMp-16" target="_WzrzDiwDLtrG3pzDvMp-44">
          <mxGeometry relative="1" as="geometry" />
        </mxCell>
        <mxCell id="_WzrzDiwDLtrG3pzDvMp-54" value="Puerto: 3306" style="edgeLabel;html=1;align=center;verticalAlign=middle;resizable=0;points=[];" vertex="1" connectable="0" parent="_WzrzDiwDLtrG3pzDvMp-47">
          <mxGeometry x="-0.4521" y="1" relative="1" as="geometry">
            <mxPoint as="offset" />
          </mxGeometry>
        </mxCell>
        <mxCell id="_WzrzDiwDLtrG3pzDvMp-16" value="Servidor Backend" style="swimlane;whiteSpace=wrap;html=1;" vertex="1" parent="1">
          <mxGeometry x="430" y="140" width="590" height="450" as="geometry" />
        </mxCell>
        <mxCell id="_WzrzDiwDLtrG3pzDvMp-19" value="ApiRest - Spring boot" style="swimlane;whiteSpace=wrap;html=1;" vertex="1" parent="_WzrzDiwDLtrG3pzDvMp-16">
          <mxGeometry x="110" y="80" width="460" height="350" as="geometry" />
        </mxCell>
        <mxCell id="_WzrzDiwDLtrG3pzDvMp-21" value="Modelos" style="swimlane;whiteSpace=wrap;html=1;" vertex="1" parent="_WzrzDiwDLtrG3pzDvMp-19">
          <mxGeometry x="50" y="280" width="160" height="60" as="geometry" />
        </mxCell>
        <mxCell id="_WzrzDiwDLtrG3pzDvMp-22" value="Java junto con Springboot" style="text;html=1;align=center;verticalAlign=middle;resizable=0;points=[];autosize=1;strokeColor=none;fillColor=none;" vertex="1" parent="_WzrzDiwDLtrG3pzDvMp-21">
          <mxGeometry y="30" width="160" height="30" as="geometry" />
        </mxCell>
        <mxCell id="_WzrzDiwDLtrG3pzDvMp-33" style="edgeStyle=orthogonalEdgeStyle;rounded=0;orthogonalLoop=1;jettySize=auto;html=1;entryX=1;entryY=0.25;entryDx=0;entryDy=0;" edge="1" parent="_WzrzDiwDLtrG3pzDvMp-19" source="_WzrzDiwDLtrG3pzDvMp-23" target="_WzrzDiwDLtrG3pzDvMp-21">
          <mxGeometry relative="1" as="geometry" />
        </mxCell>
        <mxCell id="_WzrzDiwDLtrG3pzDvMp-23" value="Repositorios" style="swimlane;whiteSpace=wrap;html=1;" vertex="1" parent="_WzrzDiwDLtrG3pzDvMp-19">
          <mxGeometry x="255" y="280" width="160" height="60" as="geometry" />
        </mxCell>
        <mxCell id="_WzrzDiwDLtrG3pzDvMp-24" value="Java junto con Springboot" style="text;html=1;align=center;verticalAlign=middle;resizable=0;points=[];autosize=1;strokeColor=none;fillColor=none;" vertex="1" parent="_WzrzDiwDLtrG3pzDvMp-23">
          <mxGeometry y="30" width="160" height="30" as="geometry" />
        </mxCell>
        <mxCell id="_WzrzDiwDLtrG3pzDvMp-27" value="Seguridad" style="swimlane;whiteSpace=wrap;html=1;" vertex="1" parent="_WzrzDiwDLtrG3pzDvMp-19">
          <mxGeometry x="20" y="80" width="210" height="80" as="geometry" />
        </mxCell>
        <mxCell id="_WzrzDiwDLtrG3pzDvMp-28" value="Java junto con Springboot&lt;br&gt; y Spring Security" style="text;html=1;align=center;verticalAlign=middle;resizable=0;points=[];autosize=1;strokeColor=none;fillColor=none;" vertex="1" parent="_WzrzDiwDLtrG3pzDvMp-27">
          <mxGeometry x="25" y="30" width="160" height="40" as="geometry" />
        </mxCell>
        <mxCell id="_WzrzDiwDLtrG3pzDvMp-29" value="Servicio" style="swimlane;whiteSpace=wrap;html=1;" vertex="1" parent="_WzrzDiwDLtrG3pzDvMp-19">
          <mxGeometry x="260" y="80" width="160" height="80" as="geometry" />
        </mxCell>
        <mxCell id="_WzrzDiwDLtrG3pzDvMp-30" value="Java junto con Springboot&lt;br&gt;expone endpoints &lt;span style=&quot;white-space: pre;&quot;&gt;REST&#x9;&lt;/span&gt;" style="text;html=1;align=center;verticalAlign=middle;resizable=0;points=[];autosize=1;strokeColor=none;fillColor=none;" vertex="1" parent="_WzrzDiwDLtrG3pzDvMp-29">
          <mxGeometry y="25" width="160" height="40" as="geometry" />
        </mxCell>
        <mxCell id="_WzrzDiwDLtrG3pzDvMp-31" value="Controladores" style="swimlane;whiteSpace=wrap;html=1;" vertex="1" parent="_WzrzDiwDLtrG3pzDvMp-19">
          <mxGeometry x="265" y="185" width="160" height="60" as="geometry" />
        </mxCell>
        <mxCell id="_WzrzDiwDLtrG3pzDvMp-32" value="Java junto con Springboot" style="text;html=1;align=center;verticalAlign=middle;resizable=0;points=[];autosize=1;strokeColor=none;fillColor=none;" vertex="1" parent="_WzrzDiwDLtrG3pzDvMp-31">
          <mxGeometry y="30" width="160" height="30" as="geometry" />
        </mxCell>
        <mxCell id="_WzrzDiwDLtrG3pzDvMp-35" style="edgeStyle=orthogonalEdgeStyle;rounded=0;orthogonalLoop=1;jettySize=auto;html=1;entryX=0.015;entryY=-0.039;entryDx=0;entryDy=0;entryPerimeter=0;" edge="1" parent="_WzrzDiwDLtrG3pzDvMp-19" source="_WzrzDiwDLtrG3pzDvMp-22" target="_WzrzDiwDLtrG3pzDvMp-24">
          <mxGeometry relative="1" as="geometry" />
        </mxCell>
        <mxCell id="_WzrzDiwDLtrG3pzDvMp-36" style="edgeStyle=orthogonalEdgeStyle;rounded=0;orthogonalLoop=1;jettySize=auto;html=1;entryX=0.438;entryY=0.083;entryDx=0;entryDy=0;entryPerimeter=0;" edge="1" parent="_WzrzDiwDLtrG3pzDvMp-19" target="_WzrzDiwDLtrG3pzDvMp-31">
          <mxGeometry relative="1" as="geometry">
            <mxPoint x="340" y="160" as="sourcePoint" />
          </mxGeometry>
        </mxCell>
        <mxCell id="_WzrzDiwDLtrG3pzDvMp-37" style="edgeStyle=orthogonalEdgeStyle;rounded=0;orthogonalLoop=1;jettySize=auto;html=1;" edge="1" parent="_WzrzDiwDLtrG3pzDvMp-19" source="_WzrzDiwDLtrG3pzDvMp-31">
          <mxGeometry relative="1" as="geometry">
            <mxPoint x="347" y="160" as="targetPoint" />
          </mxGeometry>
        </mxCell>
        <mxCell id="_WzrzDiwDLtrG3pzDvMp-38" style="edgeStyle=orthogonalEdgeStyle;rounded=0;orthogonalLoop=1;jettySize=auto;html=1;entryX=0.5;entryY=0;entryDx=0;entryDy=0;" edge="1" parent="_WzrzDiwDLtrG3pzDvMp-19" source="_WzrzDiwDLtrG3pzDvMp-32" target="_WzrzDiwDLtrG3pzDvMp-23">
          <mxGeometry relative="1" as="geometry" />
        </mxCell>
        <mxCell id="_WzrzDiwDLtrG3pzDvMp-39" style="edgeStyle=orthogonalEdgeStyle;rounded=0;orthogonalLoop=1;jettySize=auto;html=1;entryX=0.452;entryY=1.017;entryDx=0;entryDy=0;entryPerimeter=0;" edge="1" parent="_WzrzDiwDLtrG3pzDvMp-19" source="_WzrzDiwDLtrG3pzDvMp-23" target="_WzrzDiwDLtrG3pzDvMp-32">
          <mxGeometry relative="1" as="geometry" />
        </mxCell>
        <mxCell id="_WzrzDiwDLtrG3pzDvMp-40" style="edgeStyle=orthogonalEdgeStyle;rounded=0;orthogonalLoop=1;jettySize=auto;html=1;" edge="1" parent="_WzrzDiwDLtrG3pzDvMp-19" source="_WzrzDiwDLtrG3pzDvMp-30">
          <mxGeometry relative="1" as="geometry">
            <mxPoint x="230" y="135" as="targetPoint" />
          </mxGeometry>
        </mxCell>
        <mxCell id="_WzrzDiwDLtrG3pzDvMp-41" style="edgeStyle=orthogonalEdgeStyle;rounded=0;orthogonalLoop=1;jettySize=auto;html=1;entryX=0.009;entryY=0.683;entryDx=0;entryDy=0;entryPerimeter=0;" edge="1" parent="_WzrzDiwDLtrG3pzDvMp-19" target="_WzrzDiwDLtrG3pzDvMp-30">
          <mxGeometry relative="1" as="geometry">
            <mxPoint x="230" y="130" as="sourcePoint" />
          </mxGeometry>
        </mxCell>
        <mxCell id="_WzrzDiwDLtrG3pzDvMp-49" value="Java 21&lt;br&gt;Spring Boot: 3.3.9" style="rounded=1;whiteSpace=wrap;html=1;" vertex="1" parent="_WzrzDiwDLtrG3pzDvMp-19">
          <mxGeometry x="167" y="30" width="113" height="30" as="geometry" />
        </mxCell>
        <mxCell id="_WzrzDiwDLtrG3pzDvMp-43" value="Responde JSON" style="whiteSpace=wrap;html=1;" vertex="1" parent="_WzrzDiwDLtrG3pzDvMp-16">
          <mxGeometry x="20" y="130" width="80" height="30" as="geometry" />
        </mxCell>
        <mxCell id="_WzrzDiwDLtrG3pzDvMp-44" value="Servidor Base de datos" style="swimlane;whiteSpace=wrap;html=1;" vertex="1" parent="1">
          <mxGeometry x="500" y="680" width="310" height="250" as="geometry" />
        </mxCell>
        <mxCell id="_WzrzDiwDLtrG3pzDvMp-50" value="Azure" style="whiteSpace=wrap;html=1;" vertex="1" parent="_WzrzDiwDLtrG3pzDvMp-44">
          <mxGeometry x="80" y="40" width="120" height="30" as="geometry" />
        </mxCell>
        <mxCell id="_WzrzDiwDLtrG3pzDvMp-45" value="Azure" style="whiteSpace=wrap;html=1;" vertex="1" parent="1">
          <mxGeometry x="660" y="180" width="120" height="30" as="geometry" />
        </mxCell>
        <mxCell id="_WzrzDiwDLtrG3pzDvMp-52" value="Base de datos" style="swimlane;whiteSpace=wrap;html=1;" vertex="1" parent="1">
          <mxGeometry x="520" y="780" width="240" height="80" as="geometry" />
        </mxCell>
        <mxCell id="_WzrzDiwDLtrG3pzDvMp-53" value="MySQL: 8.0.36" style="rounded=0;whiteSpace=wrap;html=1;" vertex="1" parent="_WzrzDiwDLtrG3pzDvMp-52">
          <mxGeometry x="80" y="30" width="90" height="30" as="geometry" />
        </mxCell>
        <mxCell id="_WzrzDiwDLtrG3pzDvMp-55" value="HTTP" style="rounded=1;whiteSpace=wrap;html=1;" vertex="1" parent="1">
          <mxGeometry x="-130" y="200" width="60" height="30" as="geometry" />
        </mxCell>
        <mxCell id="_WzrzDiwDLtrG3pzDvMp-56" value="HTTP o HTTPS" style="rounded=1;whiteSpace=wrap;html=1;" vertex="1" parent="1">
          <mxGeometry x="320" y="380" width="66" height="30" as="geometry" />
        </mxCell>
        <mxCell id="_WzrzDiwDLtrG3pzDvMp-59" value="JDBC" style="rounded=0;whiteSpace=wrap;html=1;" vertex="1" parent="1">
          <mxGeometry x="767" y="620" width="60" height="40" as="geometry" />
        </mxCell>
        <mxCell id="_WzrzDiwDLtrG3pzDvMp-60" value="Diagrama de Despliegue" style="swimlane;whiteSpace=wrap;html=1;fontSize=16;" vertex="1" parent="1">
          <mxGeometry x="-500" y="50" width="1590" height="900" as="geometry" />
        </mxCell>
        <mxCell id="_WzrzDiwDLtrG3pzDvMp-62" value="&lt;font style=&quot;font-size: 22px;&quot;&gt;Por Juan Sebastian Lopez ID: 979910&lt;/font&gt;" style="rounded=1;whiteSpace=wrap;html=1;" vertex="1" parent="_WzrzDiwDLtrG3pzDvMp-60">
          <mxGeometry x="300" y="560" width="200" height="120" as="geometry" />
        </mxCell>
      </root>
    </mxGraphModel>
  </diagram>
</mxfile>
